<mxfile host="app.diagrams.net" modified="2024-01-05T06:16:07.475Z" agent="Mozilla/5.0 (Windows NT 10.0; Win64; x64) AppleWebKit/537.36 (KHTML, like Gecko) Chrome/120.0.0.0 Safari/537.36" version="22.1.16" etag="BvYNwNIekHDtn_9z0Lrg" type="github">
  <diagram name="Page-1" id="ChK1W9BBv4qw7w4W10nk">
    <mxGraphModel>
      <root>
        <mxCell id="0" />
        <mxCell id="1" parent="0" />
      </root>
    </mxGraphModel>
  </diagram>
</mxfile>
